<svg xmlns="http://www.w3.org/2000/svg" viewBox="0 0 60.84 56.88"><defs><style>.cls-1{fill:#f9ea07;}.cls-2{fill:none;stroke:#020202;stroke-miterlimit:10;}</style></defs><title>Asset 20</title><g id="Layer_2" data-name="Layer 2"><g id="OBJECTS"><path class="cls-1" d="M31.94,1.82A27.69,27.69,0,1,1,.33,24.94,27.73,27.73,0,0,1,31.94,1.82ZM25.18,45.4a16.41,16.41,0,1,0-13.7-18.73A16.44,16.44,0,0,0,25.18,45.4Z"/><path class="cls-2" d="M32.64,55.89A27.7,27.7,0,1,1,60.34,28.2,27.72,27.72,0,0,1,32.64,55.89Zm0-44.11A16.42,16.42,0,1,0,49.06,28.2,16.44,16.44,0,0,0,32.64,11.78Z"/></g></g></svg>