<svg xmlns="http://www.w3.org/2000/svg" viewBox="0 0 67.7 63.29"><defs><style>.cls-1{fill:#98dcf3;}.cls-2{fill:none;stroke:#020202;stroke-miterlimit:10;}</style></defs><title>Asset 21</title><g id="Layer_2" data-name="Layer 2"><g id="OBJECTS"><path class="cls-1" d="M35.58,2A30.84,30.84,0,1,1,.37,27.72,30.88,30.88,0,0,1,35.58,2ZM28,50.51A18.28,18.28,0,1,0,12.78,29.64,18.31,18.31,0,0,0,28,50.51Z"/><path class="cls-2" d="M36.35,62.19A30.85,30.85,0,1,1,67.2,31.34,30.88,30.88,0,0,1,36.35,62.19Zm0-49.12A18.28,18.28,0,1,0,54.63,31.34,18.3,18.3,0,0,0,36.35,13.07Z"/></g></g></svg>