<svg xmlns="http://www.w3.org/2000/svg" viewBox="0 0 49.27 60.21"><defs><style>.cls-1{fill:#fff;}</style></defs><title>Asset 22</title><g id="Layer_2" data-name="Layer 2"><g id="OBJECTS"><path class="cls-1" d="M.77,39.62c2.15-3,6.75-1.79,11.2-.56,3.65,1,7.42,2,8.59.37s-1.08-4.85-3.26-7.95c-2.66-3.77-5.41-7.67-3.27-10.73s6.75-1.78,11.2-.55c3.65,1,7.42,2,8.59.37s-1.08-4.85-3.26-8C27.9,8.85,25.14,5,27.29,1.89S34,.11,38.49,1.34c3.65,1,7.42,2,8.59.38a1.2,1.2,0,1,1,2,1.38c-2.14,3.06-6.75,1.79-11.2.56-3.65-1-7.42-2-8.59-.38s1.09,4.86,3.27,8C35.19,15,37.94,18.91,35.8,22s-6.75,1.79-11.21.56c-3.64-1-7.42-2-8.59-.38s1.09,4.86,3.27,8c2.66,3.78,5.41,7.68,3.27,10.73s-6.75,1.79-11.21.56c-3.64-1-7.42-2-8.59-.37S3.83,45.87,6,49c2.66,3.78,5.41,7.68,3.26,10.73a1.2,1.2,0,1,1-2-1.38c1.17-1.67-1.09-4.87-3.27-8C1.37,46.58-1.38,42.67.77,39.62Z"/></g></g></svg>