<svg xmlns="http://www.w3.org/2000/svg" viewBox="0 0 71.59 18.5"><defs><style>.cls-1{fill:#f9ea07;}</style></defs><title>Asset 23</title><g id="Layer_2" data-name="Layer 2"><g id="OBJECTS"><path class="cls-1" d="M12.74,0c3.73,0,5.34,4.5,6.9,8.84,1.28,3.56,2.6,7.25,4.63,7.25s3.35-3.69,4.63-7.25C30.46,4.5,32.07,0,35.8,0s5.34,4.5,6.9,8.84c1.28,3.56,2.59,7.25,4.63,7.25S50.68,12.4,52,8.84C53.51,4.5,55.12,0,58.85,0s5.34,4.5,6.9,8.84c1.28,3.56,2.6,7.25,4.63,7.25a1.21,1.21,0,1,1,0,2.41c-3.73,0-5.34-4.5-6.9-8.84C62.2,6.1,60.89,2.41,58.85,2.41S55.5,6.1,54.23,9.66c-1.56,4.34-3.17,8.84-6.9,8.84S42,14,40.43,9.66c-1.28-3.56-2.6-7.25-4.63-7.25S32.45,6.1,31.17,9.66C29.61,14,28,18.5,24.27,18.5s-5.34-4.5-6.9-8.84c-1.28-3.56-2.6-7.25-4.63-7.25S9.39,6.1,8.11,9.66C6.55,14,4.94,18.5,1.21,18.5a1.21,1.21,0,1,1,0-2.41c2,0,3.35-3.69,4.63-7.25C7.4,4.5,9,0,12.74,0Z"/></g></g></svg>