<svg xmlns="http://www.w3.org/2000/svg" viewBox="0 0 75.74 76.8"><defs><style>.cls-1{fill:#070707;}</style></defs><title>Asset 13</title><g id="Layer_2" data-name="Layer 2"><g id="OBJECTS"><path class="cls-1" d="M8.7,4.35A4.35,4.35,0,1,1,4.35,0,4.35,4.35,0,0,1,8.7,4.35Z"/><path class="cls-1" d="M31.05,4.35A4.35,4.35,0,1,1,26.7,0,4.35,4.35,0,0,1,31.05,4.35Z"/><path class="cls-1" d="M53.39,4.35A4.35,4.35,0,1,1,49,0,4.35,4.35,0,0,1,53.39,4.35Z"/><path class="cls-1" d="M75.74,4.35A4.35,4.35,0,1,1,71.39,0,4.35,4.35,0,0,1,75.74,4.35Z"/><path class="cls-1" d="M8.7,27.05A4.35,4.35,0,1,1,4.35,22.7,4.35,4.35,0,0,1,8.7,27.05Z"/><circle class="cls-1" cx="26.7" cy="27.05" r="4.35"/><path class="cls-1" d="M53.39,27.05A4.35,4.35,0,1,1,49,22.7,4.34,4.34,0,0,1,53.39,27.05Z"/><path class="cls-1" d="M75.74,27.05a4.35,4.35,0,1,1-4.35-4.35A4.35,4.35,0,0,1,75.74,27.05Z"/><path class="cls-1" d="M8.7,49.75A4.35,4.35,0,1,1,4.35,45.4,4.35,4.35,0,0,1,8.7,49.75Z"/><path class="cls-1" d="M31.05,49.75A4.35,4.35,0,1,1,26.7,45.4,4.35,4.35,0,0,1,31.05,49.75Z"/><path class="cls-1" d="M53.39,49.75A4.35,4.35,0,1,1,49,45.4,4.34,4.34,0,0,1,53.39,49.75Z"/><path class="cls-1" d="M75.74,49.75a4.35,4.35,0,1,1-4.35-4.35A4.35,4.35,0,0,1,75.74,49.75Z"/><path class="cls-1" d="M8.7,72.45A4.35,4.35,0,1,1,4.35,68.1,4.35,4.35,0,0,1,8.7,72.45Z"/><circle class="cls-1" cx="26.7" cy="72.45" r="4.35"/><path class="cls-1" d="M53.39,72.45A4.35,4.35,0,1,1,49,68.1,4.34,4.34,0,0,1,53.39,72.45Z"/><path class="cls-1" d="M75.74,72.45a4.35,4.35,0,1,1-4.35-4.35A4.35,4.35,0,0,1,75.74,72.45Z"/></g></g></svg>