<svg xmlns="http://www.w3.org/2000/svg" viewBox="0 0 93.4 94.72"><defs><style>.cls-1{fill:#070707;}</style></defs><title>Asset 18</title><g id="Layer_2" data-name="Layer 2"><g id="OBJECTS"><path class="cls-1" d="M10.73,5.37A5.37,5.37,0,1,1,5.37,0,5.36,5.36,0,0,1,10.73,5.37Z"/><path class="cls-1" d="M38.29,5.37A5.37,5.37,0,1,1,32.92,0,5.36,5.36,0,0,1,38.29,5.37Z"/><path class="cls-1" d="M65.85,5.37A5.37,5.37,0,1,1,60.48,0,5.37,5.37,0,0,1,65.85,5.37Z"/><path class="cls-1" d="M93.4,5.37A5.37,5.37,0,1,1,88,0,5.36,5.36,0,0,1,93.4,5.37Z"/><path class="cls-1" d="M10.73,33.36A5.37,5.37,0,1,1,5.37,28,5.37,5.37,0,0,1,10.73,33.36Z"/><path class="cls-1" d="M38.29,33.36A5.37,5.37,0,1,1,32.92,28,5.37,5.37,0,0,1,38.29,33.36Z"/><path class="cls-1" d="M65.85,33.36A5.37,5.37,0,1,1,60.48,28,5.38,5.38,0,0,1,65.85,33.36Z"/><path class="cls-1" d="M93.4,33.36A5.37,5.37,0,1,1,88,28,5.37,5.37,0,0,1,93.4,33.36Z"/><path class="cls-1" d="M10.73,61.36A5.37,5.37,0,1,1,5.37,56,5.36,5.36,0,0,1,10.73,61.36Z"/><path class="cls-1" d="M38.29,61.36A5.37,5.37,0,1,1,32.92,56,5.36,5.36,0,0,1,38.29,61.36Z"/><path class="cls-1" d="M65.85,61.36A5.37,5.37,0,1,1,60.48,56,5.37,5.37,0,0,1,65.85,61.36Z"/><path class="cls-1" d="M93.4,61.36A5.37,5.37,0,1,1,88,56,5.36,5.36,0,0,1,93.4,61.36Z"/><path class="cls-1" d="M10.73,89.35A5.37,5.37,0,1,1,5.37,84,5.37,5.37,0,0,1,10.73,89.35Z"/><path class="cls-1" d="M38.29,89.35A5.37,5.37,0,1,1,32.92,84,5.37,5.37,0,0,1,38.29,89.35Z"/><path class="cls-1" d="M65.85,89.35A5.37,5.37,0,1,1,60.48,84,5.38,5.38,0,0,1,65.85,89.35Z"/><path class="cls-1" d="M93.4,89.35A5.37,5.37,0,1,1,88,84,5.37,5.37,0,0,1,93.4,89.35Z"/></g></g></svg>