<svg width="50" height="50" viewBox="0 0 50 50" fill="none" xmlns="http://www.w3.org/2000/svg">
<path d="M25 0C11.1926 0 0 11.1926 0 25C0 38.8074 11.1926 50 25 50C38.8074 50 50 38.8074 50 25C50 11.1926 38.8074 0 25 0Z" fill="url(#paint0_linear)"/>
<path d="M25 1.17188C11.8398 1.17188 1.17188 11.8398 1.17188 25C1.17188 38.1602 11.8398 48.8281 25 48.8281C38.1602 48.8281 48.8281 38.1602 48.8281 25C48.8281 11.8398 38.1602 1.17188 25 1.17188Z" fill="white"/>
<path d="M25 2.34375C12.4871 2.34375 2.34375 12.4871 2.34375 25C2.34375 37.5129 12.4871 47.6562 25 47.6562C37.5129 47.6562 47.6562 37.5129 47.6562 25C47.6562 12.4871 37.5129 2.34375 25 2.34375Z" fill="url(#paint1_linear)"/>
<path fill-rule="evenodd" clip-rule="evenodd" d="M28.1621 19.3414L28.166 26.5348L31.057 38.3996C31.25 39.175 31.2406 39.9699 30.4731 40.1629C29.7094 40.3555 29.1035 40.1395 28.9106 39.368L25.2996 28.3711H24.1426L20.7074 39.368C20.4184 40.1125 19.8859 40.452 19.1449 40.1629C18.4082 39.8773 18.4195 39.0402 18.709 38.2957L21.4973 26.6582V19.3414L13.2851 18.6113C12.568 18.5535 12.0555 18.157 12.1133 17.4395C12.1676 16.718 12.8457 16.2891 13.5594 16.3469H26.5664L36.3539 16.3313C37.0715 16.3043 37.8715 16.7141 37.8946 17.4395C37.9258 18.1531 37.0715 18.5805 36.3539 18.6113L28.1621 19.3414ZM27.4899 12.4246C27.4901 12.7755 27.4212 13.1229 27.2871 13.4471C27.1529 13.7713 26.9562 14.0658 26.7081 14.3139C26.46 14.562 26.1654 14.7588 25.8412 14.8929C25.5171 15.027 25.1696 15.096 24.8188 15.0957C23.3539 15.0957 22.1598 13.9016 22.1598 12.4246C22.1559 10.9598 23.35 9.76562 24.8188 9.76562C26.2953 9.76562 27.4899 10.9598 27.4899 12.4246Z" fill="white"/>
<defs>
<linearGradient id="paint0_linear" x1="25" y1="18.841" x2="25" y2="50" gradientUnits="userSpaceOnUse">
<stop stop-color="#139FDA"/>
<stop offset="1" stop-color="#2359A7"/>
</linearGradient>
<linearGradient id="paint1_linear" x1="25" y1="19.4184" x2="25" y2="47.6562" gradientUnits="userSpaceOnUse">
<stop stop-color="#139FDA"/>
<stop offset="1" stop-color="#2359A7"/>
</linearGradient>
</defs>
</svg>
