<svg width="80" height="80" viewBox="0 0 80 80" fill="none" xmlns="http://www.w3.org/2000/svg">
<path d="M55.3524 17.2127C51.7834 14.9621 48.3594 14.0779 44.9514 11.8271C42.8616 10.4126 39.9195 7.00446 37.4759 4.06274C37.042 8.7729 35.6273 10.6859 33.9392 12.0202C30.5153 14.7532 28.345 15.5892 25.3389 17.2127C22.7989 18.5468 9.13438 27.9513 9.13438 45.4737C9.13438 63.0287 23.892 75.9374 40.2894 75.9374C56.6384 75.9374 70.8656 64.0412 70.8656 46.0365C70.8656 27.9834 57.5227 18.5468 55.3524 17.2127ZM55.7541 69.5551C52.523 72.7867 41.2697 74.1688 36.9938 70.2301C36.2222 69.4587 37.042 68.3013 38.0388 68.3013C38.0388 68.3013 40.7716 70.4393 46.318 70.4393C50.6581 70.4393 53.7127 69.2012 55.0791 68.1887C56.0597 67.4493 56.4295 68.8799 55.7541 69.5551ZM46.9928 61.0993C48.3916 60.5204 51.6549 60.4885 52.9089 61.3084C53.5678 61.7587 55.4969 64.3306 53.9056 65.1184C52.555 65.7935 53.7127 62.5945 49.6453 62.5945C47.2822 62.5945 46.5106 63.4306 45.353 64.3626C44.2277 65.3274 43.7777 65.6487 43.3919 65.1184C42.4272 63.8001 45.948 61.5334 46.9928 61.0993ZM61.8631 63.8804C59.4195 63.7198 54.5486 56.0357 51.4139 55.9227C46.4464 55.7781 34.6788 68.896 25.4836 62.6746C19.2459 58.3985 23.1366 45.8274 33.8108 45.7634C41.7684 45.6824 47.2823 53.6401 51.2531 53.5598C54.6772 53.5118 61.188 46.8401 64.4031 46.8401C72.2322 46.8401 68.1486 64.4109 61.8631 63.8804Z" fill="#009DE0"/>
</svg>
