<svg width="55" height="55" viewBox="0 0 55 55" fill="none" xmlns="http://www.w3.org/2000/svg">
<path d="M55 0H0V55H55V0Z" fill="#F7DF1E"/>
<path d="M36.946 42.9688C38.0539 44.7777 39.4952 46.1073 42.0445 46.1073C44.186 46.1073 45.554 45.037 45.554 43.5581C45.554 41.7859 44.1484 41.1582 41.7913 40.1271L40.4992 39.5728C36.7697 37.9839 34.2921 35.9934 34.2921 31.7855C34.2921 27.9093 37.2455 24.9585 41.8611 24.9585C45.1471 24.9585 47.5095 26.1021 49.2119 29.0966L45.1873 31.6807C44.3012 30.0918 43.3452 29.4659 41.8611 29.4659C40.3473 29.4659 39.3879 30.4262 39.3879 31.6807C39.3879 33.2312 40.3482 33.8589 42.5656 34.8192L43.8577 35.3727C48.249 37.2558 50.7283 39.1756 50.7283 43.4918C50.7283 48.1449 47.073 50.6941 42.1641 50.6941C37.3642 50.6941 34.2633 48.4068 32.746 45.4089L36.946 42.9688ZM18.6887 43.4167C19.5006 44.8572 20.2391 46.075 22.0149 46.075C23.7129 46.075 24.7841 45.4106 24.7841 42.8274V25.2536H29.9523V42.8972C29.9523 48.2488 26.8147 50.6845 22.2349 50.6845C18.0968 50.6845 15.7003 48.543 14.4816 45.9637L18.6887 43.4167Z" fill="black"/>
</svg>
