<svg width="80" height="49" viewBox="0 0 80 49" fill="none" xmlns="http://www.w3.org/2000/svg">
<path d="M18.9146 12.6279H33.9713V13.8205H20.2951V22.7957H33.1557V23.9883H20.2951V33.8423H34.1281V35.0349H18.9146V12.6279ZM35.32 12.6279H36.92L44.0092 22.4818L51.2551 12.6279L61.1108 0.111328L44.9189 23.5175L53.2627 35.0349H51.6L44.0092 24.5532L36.387 35.0349H34.7557L43.1622 23.5175L35.3205 12.6279H35.32ZM53.8589 13.8205V12.6279H71.0168V13.8205H63.1124V35.0344H61.7319V13.8205H53.8595H53.8589ZM0.0783691 12.6279H1.80377L25.5935 48.1024L15.7622 35.0349L1.52107 14.3225L1.45837 35.0349H0.0783691V12.6279ZM70.8784 33.4822C70.5957 33.4822 70.3843 33.2645 70.3843 32.9834C70.3843 32.7018 70.5957 32.4841 70.8778 32.4841C71.1632 32.4841 71.3714 32.7018 71.3714 32.9834C71.3714 33.2645 71.1632 33.4822 70.8778 33.4822H70.8784ZM72.2341 32.1691H72.973C72.9832 32.5679 73.2757 32.8356 73.7049 32.8356C74.1849 32.8356 74.4568 32.548 74.4568 32.0084V28.5923H75.2086V32.0117C75.2086 32.9834 74.6449 33.5429 73.7113 33.5429C72.8357 33.5429 72.2346 33.0001 72.2346 32.1691H72.2341ZM76.1919 32.1261H76.9373C77.0011 32.5846 77.4508 32.8759 78.0989 32.8759C78.7027 32.8759 79.146 32.5642 79.146 32.1358C79.146 31.7676 78.8643 31.5462 78.2227 31.3957L77.5984 31.2452C76.7227 31.041 76.3227 30.6185 76.3227 29.9085C76.3227 29.0475 77.0276 28.4746 78.0849 28.4746C79.0686 28.4746 79.7876 29.0475 79.8308 29.8612H79.0989C79.0286 29.4162 78.6395 29.1378 78.0751 29.1378C77.4805 29.1378 77.0849 29.4227 77.0849 29.858C77.0849 30.2031 77.34 30.4009 77.9714 30.5481L78.5049 30.6787C79.4984 30.9098 79.9081 31.3119 79.9081 32.0385C79.9081 32.963 79.1892 33.5429 78.0416 33.5429C76.9676 33.5429 76.2454 32.9898 76.1919 32.1256V32.1261Z" fill="black"/>
</svg>
