<svg width="80" height="80" viewBox="0 0 80 80" fill="none" xmlns="http://www.w3.org/2000/svg">
<path d="M39.9333 46.6401C43.63 46.6401 46.6267 43.6434 46.6267 39.9467C46.6267 36.2501 43.63 33.2534 39.9333 33.2534C36.2367 33.2534 33.24 36.2501 33.24 39.9467C33.24 43.6434 36.2367 46.6401 39.9333 46.6401Z" fill="#00D8FF"/>
<path d="M39.9333 55.2799C30.5333 55.2799 22.32 54.1732 16.1733 52.0666C12.1867 50.7066 8.80001 48.8932 6.38667 46.8266C3.82667 44.6399 2.46667 42.2532 2.46667 39.9466C2.46667 35.5199 7.32001 31.1866 15.4667 28.3599C22.1333 26.0399 30.8267 24.7466 39.92 24.7466C48.8533 24.7466 57.4267 25.9999 64.0533 28.2932C67.9333 29.6266 71.2 31.3599 73.52 33.2799C76.04 35.3866 77.3733 37.6932 77.3733 39.9466C77.3733 44.5466 71.9467 49.1999 63.2 52.0932C57.0133 54.1466 48.7467 55.2799 39.9333 55.2799ZM39.9333 27.9466C31.3067 27.9466 22.7733 29.1999 16.5333 31.3732C9.04001 33.9866 5.68001 37.5599 5.68001 39.9466C5.68001 42.4266 9.29334 46.3332 17.2133 49.0399C23.0267 51.0266 30.8933 52.0799 39.9333 52.0799C48.4133 52.0799 56.32 51.0132 62.2 49.0532C70.4267 46.3199 74.1867 42.4132 74.1867 39.9466C74.1867 38.6799 73.2267 37.1866 71.48 35.7332C69.4667 34.0532 66.5333 32.5199 63.0267 31.3066C56.72 29.1466 48.52 27.9466 39.9333 27.9466Z" fill="#00D8FF"/>
<path d="M24.7467 73.3068C23.3867 73.3068 22.1867 73.0134 21.1734 72.4268C17.3467 70.2134 16.0134 63.8401 17.6267 55.3734C18.9467 48.4268 22.1734 40.2668 26.72 32.3867C31.1867 24.6534 36.5467 17.8534 41.84 13.2534C44.9333 10.5601 48.0667 8.58674 50.8934 7.54674C53.9734 6.41341 56.64 6.41341 58.5867 7.53341C62.5733 9.82674 63.8934 16.8667 62.0267 25.8801C60.7067 32.2801 57.56 40.0001 53.16 47.6401C48.4667 55.7734 43.4 62.3334 38.5067 66.6134C35.3334 69.3868 32.0667 71.4134 29.08 72.4668C27.52 73.0268 26.0534 73.3068 24.7467 73.3068ZM28.0934 33.1867L29.48 33.9867C25.1734 41.4534 21.9867 49.4668 20.76 55.9734C19.28 63.7734 20.7067 68.4668 22.76 69.6534C23.2667 69.9468 23.9334 70.1068 24.7467 70.1068C27.4 70.1068 31.5734 68.4268 36.4 64.2134C41.0267 60.1734 45.8667 53.8801 50.3867 46.0534C54.6267 38.7068 57.64 31.3201 58.8934 25.2534C60.64 16.7601 59.1334 11.5601 56.9867 10.3201C55.8933 9.69341 54.12 9.77341 51.9867 10.5601C49.52 11.4667 46.7334 13.2401 43.9334 15.6801C38.9067 20.0534 33.7734 26.5601 29.48 34.0001L28.0934 33.1867Z" fill="#00D8FF"/>
<path d="M55.12 73.3467C51.4933 73.3467 46.8933 71.1601 42.0933 67.0267C36.7333 62.4134 31.28 55.5467 26.72 47.6667C22.24 39.9334 19.04 31.8934 17.6933 25C16.9067 20.9734 16.76 17.28 17.2667 14.3067C17.8267 11.0667 19.1467 8.76004 21.1067 7.62671C25.08 5.32004 31.84 7.69338 38.72 13.8134C43.6 18.1467 48.72 24.7334 53.1333 32.3601C57.84 40.4934 61 48.1601 62.2533 54.5334C63.0666 58.6667 63.2 62.5067 62.6266 65.6267C62.0133 68.9467 60.6266 71.3067 58.6266 72.4667C57.6266 73.0534 56.44 73.3467 55.12 73.3467ZM29.4933 46.0667C33.8133 53.5334 39.1733 60.2934 44.1867 64.6001C50.2 69.7734 54.9733 70.8934 57.04 69.6934C59.1866 68.4534 60.76 63.3734 59.1333 55.1601C57.9333 49.1334 54.9066 41.8001 50.3733 33.9734C46.12 26.6267 41.2267 20.32 36.6 16.2134C30.12 10.4534 24.8667 9.16004 22.72 10.4C21.6267 11.0267 20.8133 12.6134 20.4267 14.8534C19.9867 17.44 20.12 20.7467 20.84 24.3867C22.12 30.9334 25.1867 38.6267 29.4933 46.0667Z" fill="#00D8FF"/>
</svg>
