<svg width="80" height="54" viewBox="0 0 80 54" fill="none" xmlns="http://www.w3.org/2000/svg">
<path d="M27.2903 53.0942L12.0647 11.4376L53.8772 0.25293L61.4831 43.9448L45.63 53.267L27.2903 53.0942Z" fill="#E44D26"/>
<path d="M44.6844 49.6347L57.4929 42.0985L50.9916 4.76099L33.9031 9.33255L44.6844 49.6347Z" fill="#F16529"/>
<path d="M73.7634 21.8039L75.7116 28.507L60.7966 32.721C60.7966 32.721 60.7966 41.692 53.5584 45.2582C46.3212 48.8245 40.6987 45.8004 40.6987 45.8004L39.7984 43.2064L50.5347 40.2873L52.9109 31.0989L45.9941 24.2954L36.0512 27.3026L35.1878 24.9426C35.1878 24.9429 39.8334 14.6751 53.5603 20.5148C53.5603 20.5148 57.8859 23.2139 58.8559 25.5942L73.7634 21.8039ZM75.7116 21.3004L78.0881 20.6157L80 27.461L77.5125 28.2154L75.7116 21.3004Z" fill="#EFEFEF"/>
<path d="M76.5488 20.9982L78.0881 20.6157L80 27.461L77.5125 28.2154L76.8613 25.9232L77.8538 25.5348L76.5488 20.9982ZM72.1188 22.2232L73.7634 21.8038L75.7116 28.507L60.7966 32.721C60.7966 32.721 60.6359 40.5485 55.4453 44.0929C50.2634 47.6342 44.4234 47.5276 40.6969 45.8007L40.2816 44.6045C40.2816 44.6045 50.4234 46.9892 55.4453 39.3688C58.4738 34.3448 58.4203 30.7229 58.4203 30.7229L73.3869 26.6713L72.1188 22.2232ZM35.1859 24.9385L43.9403 22.3979L45.9903 24.291L36.0494 27.2982L35.1859 24.9385Z" fill="#BCBCBC"/>
<path d="M4.32312 29.6894L6.08063 36.4438L21.0475 32.435C21.0475 32.435 25.64 40.1394 33.6853 39.4978C41.7331 38.8566 45.0116 33.3825 45.0116 33.3825L44.4569 30.6941L33.7409 33.6806L26.9963 27.0066L29.4566 17.6163L39.5397 15.1125L39.0728 12.6419C39.0728 12.6419 29.8291 6.19753 21.0209 18.2372C21.0209 18.2372 18.6897 22.7678 19.07 25.3088L4.32312 29.6894ZM2.39281 30.2547L0 30.8816L1.86063 37.7388L4.38469 37.116L2.39281 30.2547Z" fill="#EFEFEF"/>
<path d="M1.51937 30.4206L0 30.8816L1.86063 37.7388L4.38469 37.116L3.77406 34.8113L2.71781 34.9866L1.51937 30.4206ZM5.95531 29.2078L4.32312 29.6894L6.08063 36.4438L21.0475 32.435C21.0475 32.435 25.1934 39.0747 31.4653 39.4654C37.7309 39.8519 42.6909 36.7766 45.0116 33.3825L44.7588 32.1431C44.7588 32.1431 37.2622 39.3832 29.0459 35.4053C23.8741 32.6388 22.0691 29.4953 22.0691 29.4953L7.13531 33.6766L5.95531 29.2078ZM39.0728 12.644L30.2544 14.9381L29.4587 17.6166L39.5416 15.1128L39.0728 12.644Z" fill="#BCBCBC"/>
</svg>
