<svg width="60" height="60" viewBox="0 0 60 60" fill="none" xmlns="http://www.w3.org/2000/svg">
<path fill-rule="evenodd" clip-rule="evenodd" d="M29.997 4.20188C36.7261 4.20188 42.853 6.7805 47.4457 11.0023C45.1946 10.9419 42.9482 12.28 42.8553 15.3442C42.666 21.5387 50.2624 22.8582 46.1692 35.318L42.7833 45.6244L33.5618 18.4606C33.4189 18.0401 33.585 17.8008 34.1019 17.8008H36.709C36.8445 17.8008 36.9553 17.6852 36.9553 17.5435V15.9993C36.9553 15.8577 36.8442 15.7361 36.709 15.742C31.7719 15.9579 26.8638 15.9594 21.9853 15.742C21.8494 15.7362 21.7391 15.8582 21.7391 15.9999V17.544C21.7391 17.6855 21.8499 17.8014 21.9853 17.8014H24.6067C25.1898 17.8014 25.3531 17.9957 25.4905 18.3716L29.2795 28.7337L23.5798 45.9442L14.2108 18.3483C14.0947 18.0022 14.2352 17.8012 14.5686 17.8012H17.5555C17.6909 17.8012 17.8017 17.6855 17.8017 17.5439V15.9997C17.8017 15.8581 17.6905 15.7353 17.5555 15.7424C14.4216 15.9089 11.2758 15.9423 8.3455 15.9724C12.9439 8.88888 20.9227 4.20137 29.9954 4.20137L29.9954 4.2013L29.997 4.20188ZM52.6842 17.7141C54.6664 21.3661 55.792 25.5503 55.792 29.9962C55.792 39.7537 50.3705 48.2463 42.3773 52.63L50.4221 29.844C51.6685 26.3176 52.8254 21.5518 52.6837 17.7141H52.6836H52.6842ZM38.6331 54.3072C35.9325 55.2678 33.0263 55.7917 29.997 55.7917C27.3871 55.7917 24.8689 55.4026 22.4947 54.6824L30.4413 31.9093L38.633 54.3084L38.6331 54.3072ZM18.9589 53.3153C10.2357 49.1782 4.20157 40.2909 4.20157 29.9974C4.20157 26.1815 5.03167 22.5591 6.51942 19.3L18.9595 53.3157L18.9596 53.3157L18.9589 53.3153ZM29.9962 1.78123C45.576 1.78123 58.2112 14.4165 58.2112 29.9962C58.2112 45.5759 45.576 58.2112 29.9962 58.2112C14.4165 58.2112 1.78127 45.5759 1.78127 29.9962C1.78127 14.4165 14.4165 1.78123 29.9962 1.78123ZM29.9962 -0.00219727C46.561 -0.00219727 59.9953 13.4322 59.9953 29.9969C59.9953 46.5616 46.561 59.996 29.9962 59.996C13.4315 59.996 -0.00285339 46.5616 -0.00285339 29.9969C-0.00285339 13.4322 13.4315 -0.00219727 29.9962 -0.00219727Z" fill="#464342"/>
</svg>
