<svg width="50" height="72" viewBox="0 0 50 72" fill="none" xmlns="http://www.w3.org/2000/svg">
<g clip-path="url(#clip0)">
<path d="M49.0996 16L44.6355 65.4942L24.5696 71L4.55885 65.502L0.099556 16H49.0996Z" fill="#264DE4"/>
<path d="M10.3224 37.718L10.8722 44.1038H24.5996V37.718H10.3224Z" fill="white"/>
<path d="M24.5995 24.793H24.5783H9.21767L9.7753 31.1789H24.5995V24.793Z" fill="white"/>
<path d="M24.5996 60.9468V54.3028L24.5727 54.3103L17.7409 52.3899L17.3041 47.2969H13.9844H11.1463L12.0057 57.3236L24.5713 60.9549L24.5996 60.9468Z" fill="white"/>
<path d="M11.0995 3H18.0995V6H14.0268V9H18.0995V12H11.0995V3Z" fill="black"/>
<path d="M20.0995 3H27.0995V5.57143H23.0268V6.08571H27.0995V12H20.0995V9.3H24.1723V8.78571H20.0995V3Z" fill="black"/>
<path d="M29.0995 3H36.0995V5.57143H32.0268V6.08571H36.0995V12H29.0995V9.3H33.1723V8.78571H29.0995V3Z" fill="black"/>
<path d="M32.132 44.1039L31.42 52.3859L24.5783 54.3082V60.9519L37.154 57.3236L37.2462 56.2447L38.6877 39.4329L38.8374 37.7181L39.9448 24.793H24.5783V31.1789H33.2222L32.664 37.7181H24.5783V44.1039H32.132Z" fill="white"/>
</g>
<defs>
<clipPath id="clip0">
<rect width="49" height="72" fill="white" transform="translate(0.0995483)"/>
</clipPath>
</defs>
</svg>
