<svg width="50" height="70" viewBox="0 0 50 70" fill="none" xmlns="http://www.w3.org/2000/svg">
<path d="M7.62987 6.22017H10.4888V9.35142H13.6158V0H10.4888V3.09033H7.62987V0H4.50426V9.35142H7.62987V6.22017Z" fill="black"/>
<path d="M17.7249 9.35142H20.8505V3.10303H23.6008V0H14.9747V3.10303H17.7249V9.35142Z" fill="black"/>
<path d="M28.0289 4.71875L30.1822 8.04191H30.2344L32.3835 4.71875V9.35142H35.4979V0H32.2382L30.2344 3.29071L28.2306 0H24.9724V9.35142H28.0289V4.71875Z" fill="black"/>
<path d="M44.5741 6.2625H40.1785V0H37.0529V9.35142H44.5741V6.2625Z" fill="black"/>
<path d="M0 13.4548L4.47039 63.5944L24.5378 69.164L44.6207 63.5972L49.0995 13.4548H0ZM39.401 29.8519H24.5491H15.8679L16.4295 36.1497H24.5491H38.8422L37.1559 55.0346L24.5491 58.5271L24.5406 58.5299L11.9422 55.0346L11.0631 45.1568H17.2353L17.6925 50.2805L24.542 52.1319L24.5505 52.1291L31.4071 50.2777L32.1211 42.3021H24.5505H10.8077L9.14681 23.7051H24.5491H39.9499L39.401 29.8519Z" fill="#F58D2C"/>
</svg>
